<svg width="1080" height="1080" viewBox="0 0 1080 1080" fill="none" xmlns="http://www.w3.org/2000/svg">
<rect y="78" width="972" height="972" rx="63" fill="black"/>
<path fill-rule="evenodd" clip-rule="evenodd" d="M55 106C41.7452 106 31 116.745 31 130V950C31 963.255 41.7452 974 55 974H183C196.255 974 207 963.255 207 950V885.082C265.916 956.554 361.324 1003 469 1003C647.94 1003 793 874.73 793 716.5C793 650.091 767.448 588.96 724.564 540.374C754.04 497.205 771 446.604 771 392.5C771 234.27 625.94 106 447 106C351.847 106 266.275 142.27 207 200.029V130C207 116.745 196.255 106 183 106H55ZM503.764 542.236C572.487 515.99 621 452.123 621 377.5C621 279.469 537.277 200 434 200C330.723 200 247 279.469 247 377.5C247 465.916 315.105 539.233 404.236 552.764C335.513 579.01 287 642.877 287 717.5C287 815.531 370.723 895 474 895C577.277 895 661 815.531 661 717.5C661 629.084 592.895 555.767 503.764 542.236Z" fill="#D9D9D9"/>
</svg>
